<svg width="18" height="14" viewBox="0 0 18 14" fill="none" xmlns="http://www.w3.org/2000/svg">
<path d="M1.5 3.66699L8.075 8.05033C8.34888 8.23306 8.67075 8.33058 9 8.33058C9.32925 8.33058 9.65112 8.23306 9.925 8.05033L16.5 3.66699M3.16667 12.8337H14.8333C15.2754 12.8337 15.6993 12.6581 16.0118 12.3455C16.3244 12.0329 16.5 11.609 16.5 11.167V2.83366C16.5 2.39163 16.3244 1.96771 16.0118 1.65515C15.6993 1.34259 15.2754 1.16699 14.8333 1.16699H3.16667C2.72464 1.16699 2.30072 1.34259 1.98816 1.65515C1.67559 1.96771 1.5 2.39163 1.5 2.83366V11.167C1.5 11.609 1.67559 12.0329 1.98816 12.3455C2.30072 12.6581 2.72464 12.8337 3.16667 12.8337Z" stroke="#8BAC3E" stroke-width="2" stroke-linecap="round" stroke-linejoin="round"/>
</svg>
